<svg xmlns="http://www.w3.org/2000/svg" viewBox="0 0 440 360" role="img" aria-labelledby="heroTitle heroDesc">
  <title id="heroTitle">Children learning in a village classroom</title>
  <desc id="heroDesc">Illustration of a teacher with children in a classroom setting</desc>
  <defs>
    <linearGradient id="bg" x1="0%" y1="0%" x2="0%" y2="100%">
      <stop offset="0%" stop-color="#f7f6ef"/>
      <stop offset="100%" stop-color="#eef5ec"/>
    </linearGradient>
    <linearGradient id="shirt" x1="0%" y1="0%" x2="100%" y2="100%">
      <stop offset="0%" stop-color="#8bbf7f"/>
      <stop offset="100%" stop-color="#6ca865"/>
    </linearGradient>
  </defs>
  <rect width="440" height="360" rx="36" fill="url(#bg)"/>
  <circle cx="130" cy="140" r="52" fill="#f0c28b"/>
  <rect x="110" y="190" width="42" height="70" rx="20" fill="#8bbf7f"/>
  <rect x="116" y="170" width="40" height="40" rx="18" fill="#e8a56a"/>
  <path d="M86 290c20-40 52-60 88-62s58 12 80 28" stroke="#9dbb94" stroke-width="16" stroke-linecap="round" fill="none"/>
  <circle cx="290" cy="130" r="44" fill="#f0c28b"/>
  <rect x="266" y="192" width="48" height="74" rx="20" fill="#d18a72"/>
  <rect x="276" y="170" width="30" height="30" rx="14" fill="#e8a56a"/>
  <path d="M260 290c14-34 40-50 68-56s54 2 76 24" stroke="#9dbb94" stroke-width="16" stroke-linecap="round" fill="none"/>
  <rect x="80" y="88" width="280" height="70" rx="28" fill="#ffffff" opacity="0.9"/>
  <path d="M108 112h220v12a14 14 0 0 1-14 14H122a14 14 0 0 1-14-14v-12z" fill="#dcd7ca"/>
  <circle cx="140" cy="156" r="8" fill="#f79d69"/>
  <circle cx="188" cy="166" r="8" fill="#f79d69"/>
  <circle cx="238" cy="146" r="10" fill="#f79d69"/>
  <path d="M152 216c12-14 32-24 54-24 24 0 42 10 60 24" stroke="#8fae8f" stroke-width="12" stroke-linecap="round" fill="none"/>
</svg>
